<?xml version="1.0" standalone="no"?><!DOCTYPE svg PUBLIC "-//W3C//DTD SVG 1.1//EN" "http://www.w3.org/Graphics/SVG/1.1/DTD/svg11.dtd"><svg t="1578540257650" class="icon" viewBox="0 0 1024 1024" version="1.1" xmlns="http://www.w3.org/2000/svg" p-id="31412" xmlns:xlink="http://www.w3.org/1999/xlink" width="200" height="200"><defs><style type="text/css"></style></defs><path d="M761.6 678.4h236.8c14.4 0 25.6 11.2 25.6 25.6v230.4c0 14.4-11.2 25.6-25.6 25.6H761.6c-14.4 0-25.6-11.2-25.6-25.6V704c0-14.4 11.2-25.6 25.6-25.6z m-364.8 0h236.8c14.4 0 25.6 11.2 25.6 25.6v230.4c0 14.4-11.2 25.6-25.6 25.6H396.8c-14.4 0-25.6-11.2-25.6-25.6V704c0-14.4 11.2-25.6 25.6-25.6z m-371.2 0h236.8c14.4 0 25.6 11.2 25.6 25.6v230.4c0 14.4-11.2 25.6-25.6 25.6H25.6C11.2 960 0 948.8 0 934.4V704c0-14.4 11.2-25.6 25.6-25.6z m828.8-67.2v-56H547.2v56c0 8-6.4 16-16 16h-33.6c-8 0-16-6.4-16-16v-56H176v56c0 8-6.4 16-16 16h-32c-8 0-16-6.4-16-16V500.8c0-9.6 8-16 16-16h355.2V331.2H320c-14.4 0-25.6-11.2-25.6-25.6V67.2c0-14.4 11.2-25.6 25.6-25.6h384c14.4 0 25.6 11.2 25.6 25.6V304c0 14.4-11.2 25.6-25.6 25.6H548.8v153.6H904c9.6 0 16 8 16 16v110.4c0 8-6.4 16-16 16h-33.6c-9.6 1.6-16-6.4-16-14.4z m0 16" p-id="31413"></path></svg>