<?xml version="1.0" standalone="no"?><!DOCTYPE svg PUBLIC "-//W3C//DTD SVG 1.1//EN" "http://www.w3.org/Graphics/SVG/1.1/DTD/svg11.dtd"><svg t="1578030574578" class="icon" viewBox="0 0 1024 1024" version="1.1" xmlns="http://www.w3.org/2000/svg" p-id="2398" xmlns:xlink="http://www.w3.org/1999/xlink" width="200" height="200"><defs><style type="text/css"></style></defs><path d="M416.1 167.8H223.9c-35.3 0.1-63.9 28.6-63.9 63.9v192.2c0.1 35.3 28.6 63.9 63.9 63.9h192.2c35.3-0.1 63.9-28.6 63.9-63.9V231.7c-0.1-35.3-28.6-63.9-63.9-63.9m469 114.8L749.2 146.7c-25-24.9-65.4-24.9-90.4 0L640 165.5 522.9 282.6c-12 11.9-18.7 28.2-18.7 45.1-0.1 17 6.6 33.3 18.7 45.3l18.8 18.8 98.3 98.3 18.8 18.8c25 24.9 65.4 24.9 90.4 0l117.1-117.1 18.8-18.8c24.9-25 24.9-65.4 0-90.4m-469 269.2H223.9c-35.3 0.1-63.9 28.6-63.9 63.9v192.2c0.1 35.3 28.6 63.9 63.9 63.9h192.2c35.3-0.1 63.9-28.6 63.9-63.9V615.7c-0.1-35.3-28.6-63.9-63.9-63.9m384 0H607.9c-35.3 0.1-63.9 28.6-63.9 63.9v192.2c0.1 35.3 28.6 63.9 63.9 63.9h192.2c35.3-0.1 63.9-28.6 63.9-63.9V615.7c-0.1-35.3-28.6-63.9-63.9-63.9" fill="#999999" p-id="2399"></path></svg>