<?xml version="1.0" standalone="no"?><!DOCTYPE svg PUBLIC "-//W3C//DTD SVG 1.1//EN" "http://www.w3.org/Graphics/SVG/1.1/DTD/svg11.dtd"><svg t="1578030861600" class="icon" viewBox="0 0 1024 1024" version="1.1" xmlns="http://www.w3.org/2000/svg" p-id="7598" xmlns:xlink="http://www.w3.org/1999/xlink" width="200" height="200"><defs><style type="text/css"></style></defs><path d="M511.573197 398.041506a42.069053 42.069053 0 0 0 30.719795-12.330584 41.04506 41.04506 0 0 0 12.373251-29.866468V42.673209a42.239718 42.239718 0 0 0-12.373251-29.866468 41.471724 41.471724 0 0 0-30.719795-12.799914 39.338404 39.338404 0 0 0-29.439804 12.799914 40.959727 40.959727 0 0 0-12.799915 29.866468v313.299245a42.922381 42.922381 0 0 0 42.239719 42.069052z m476.583489 19.626536a463.100913 463.100913 0 0 0-41.38639-108.799274A519.847201 519.847201 0 0 0 881.064067 213.338738a494.930034 494.930034 0 0 0-87.892747-79.316805c-69.119539 2.431984-78.506143 42.325051-72.106186 74.410171a395.944027 395.944027 0 1 1-430.503797 8.533276A61.695589 61.695589 0 0 0 219.735142 141.659216a525.735162 525.735162 0 0 0-83.199445 78.719475 463.48491 463.48491 0 0 0-62.292918 93.866041 504.700635 504.700635 0 0 0-39.253072 106.068626 484.00744 484.00744 0 0 0-13.653242 113.705909 476.711489 476.711489 0 0 0 38.399744 190.761394 484.391437 484.391437 0 0 0 105.385964 155.305632 503.036646 503.036646 0 0 0 156.158959 104.916634 487.890081 487.890081 0 0 0 381.437457 0 494.930034 494.930034 0 0 0 261.118259-260.264932 477.010153 477.010153 0 0 0 38.826408-190.761395 466.599556 466.599556 0 0 0-14.50657-116.308558z" p-id="7599"></path></svg>