<?xml version="1.0" standalone="no"?><!DOCTYPE svg PUBLIC "-//W3C//DTD SVG 1.1//EN" "http://www.w3.org/Graphics/SVG/1.1/DTD/svg11.dtd"><svg t="1577765049734" class="icon" viewBox="0 0 1024 1024" version="1.1" xmlns="http://www.w3.org/2000/svg" p-id="13792" xmlns:xlink="http://www.w3.org/1999/xlink" width="200" height="200"><defs><style type="text/css"></style></defs><path d="M606.267 94.085c0-49.799-42.205-90.357-94.267-90.357-51.955 0-94.268 40.457-94.268 90.357a86.96 86.96 0 0 0 1.285 14.931c-130.169 43.49-236.959 177.045-236.959 335.057v124.402s0 179.16-45.917 180.721c-27.378 0-48.349 20.228-48.349 45.181 0 25.124 21.098 45.178 47.125 45.178H889.08c26.154 0 47.126-20.229 47.126-45.178 0-25.128-21.097-45.181-47.126-45.181-47.141 0-47.141-179.461-47.141-179.461V444.089c0-158.215-99.849-291.826-236.934-335.184a87.122 87.122 0 0 0 1.262-14.82z m47.134 790.571c-0.142 74.927-62.855 135.617-141.402 135.617-78.008 0-141.263-60.44-141.403-135.617h282.805z" p-id="13793"></path></svg>