<?xml version="1.0" standalone="no"?><!DOCTYPE svg PUBLIC "-//W3C//DTD SVG 1.1//EN" "http://www.w3.org/Graphics/SVG/1.1/DTD/svg11.dtd"><svg t="1578030666858" class="icon" viewBox="0 0 1024 1024" version="1.1" xmlns="http://www.w3.org/2000/svg" p-id="4782" xmlns:xlink="http://www.w3.org/1999/xlink" width="200" height="200"><defs><style type="text/css"></style></defs><path d="M1009.371429 438.857143l-95.085715-95.085714c58.514286-80.457143 43.885714-197.485714-29.257143-270.628572C797.257143-14.628571 658.285714-14.628571 577.828571 73.142857s-87.771429 226.742857 0 307.2c80.457143 80.457143 204.8 87.771429 292.571429 14.628572l95.085714 95.085714 43.885715-51.2zM629.028571 329.142857c-58.514286-58.514286-58.514286-146.285714 0-204.8 58.514286-58.514286 146.285714-58.514286 204.8 0 58.514286 58.514286 58.514286 146.285714 0 204.8-58.514286 58.514286-146.285714 58.514286-204.8 0zM0 0h438.857143v438.857143H0zM585.142857 585.142857h438.857143v438.857143H585.142857zM0 585.142857h438.857143v438.857143H0z" p-id="4783"></path></svg>