<?xml version="1.0" encoding="utf-8"?>
<!-- Generator: Adobe Illustrator 18.0.0, SVG Export Plug-In . SVG Version: 6.00 Build 0)  -->
<!DOCTYPE svg PUBLIC "-//W3C//DTD SVG 1.1//EN" "http://www.w3.org/Graphics/SVG/1.1/DTD/svg11.dtd">
<svg version="1.1" id="图层_1" xmlns="http://www.w3.org/2000/svg" xmlns:xlink="http://www.w3.org/1999/xlink" x="0px" y="0px"
	 viewBox="28.5 18.9 200 158.5" enable-background="new 28.5 18.9 200 158.5" xml:space="preserve">
<path d="M173.6,96.8l-22.4-22.5l55.4-55.5H44.3c-9.2,0-15.8,6.6-15.8,15.8v126.8c0,9.2,6.6,15.8,15.8,15.8h168.9
	c9.2,0,15.8-6.6,15.8-15.8V41.4L173.6,96.8L173.6,96.8z M145.9,81c0-2.6,2.6-2.6,2.6,0L167,98.2v2.6l-22.4,2.6c0,0-2.6,0-2.6-2.6
	L145.9,81L145.9,81z M57.5,48h48.8c4,0,6.6,2.6,6.6,6.6s-2.6,6.6-6.6,6.6H57.5c-4,0-6.6-2.6-6.6-6.6C50.9,51.9,56.2,48,57.5,48z
	 M57.5,90.2h48.8c4,0,6.6,2.6,6.6,6.6s-2.6,6.6-6.6,6.6H57.5c-2.6,0-6.6-2.6-6.6-6.6C50.9,92.9,56.2,90.2,57.5,90.2z M193.4,147
	H57.5c-4,0-6.6-2.6-6.6-6.6c0-4,2.6-6.6,6.6-6.6h135.9c4,0,6.6,2.6,6.6,6.6C200,145.7,197.4,147,193.4,147z"/>
</svg>
